<?xml version="1.0" standalone="no"?>
<!DOCTYPE svg PUBLIC "-//W3C//DTD SVG 20010904//EN"
 "http://www.w3.org/TR/2001/REC-SVG-20010904/DTD/svg10.dtd">
<svg version="1.0" xmlns="http://www.w3.org/2000/svg"
 width="500.000000pt" height="500.000000pt" viewBox="0 0 500.000000 500.000000"
 preserveAspectRatio="xMidYMid meet">
<metadata>
Created by potrace 1.14, written by Peter Selinger 2001-2017
</metadata>
<g transform="translate(0.000000,500.000000) scale(0.100000,-0.100000)"
fill="#000000" stroke="none">
<path d="M1570 4080 c-38 -77 -70 -142 -70 -145 0 -3 301 -5 669 -5 368 0 676
-3 685 -6 9 -3 16 -15 16 -25 0 -11 -77 -172 -170 -359 l-170 -340 73 -145 72
-145 328 655 327 655 -845 0 -845 0 -70 -140z"/>
<path d="M3040 3520 l-335 -670 70 -140 c38 -77 72 -140 75 -140 3 0 155 299
338 665 l332 665 -73 145 -72 145 -335 -670z"/>
<path d="M1500 3865 c0 -3 268 -541 595 -1195 l595 -1190 145 0 145 0 -517
1034 c-445 890 -515 1036 -504 1050 12 14 55 16 357 16 l344 0 70 140 c38 77
70 142 70 145 0 3 -292 5 -650 5 -357 0 -650 -2 -650 -5z"/>
<path d="M2535 2490 c283 -566 515 -1036 515 -1044 0 -8 -7 -17 -16 -20 -9 -3
-168 -6 -355 -6 l-339 0 -70 -140 c-38 -77 -70 -142 -70 -145 0 -3 293 -5 650
-5 358 0 650 2 650 5 0 3 -268 541 -595 1195 l-595 1190 -145 0 -145 0 515
-1030z"/>
<path d="M2432 3395 c35 -69 65 -125 68 -125 3 0 33 56 68 125 l62 125 -130 0
-130 0 62 -125z"/>
<path d="M1812 1765 l-332 -665 73 -145 72 -145 335 670 335 670 -70 140 c-38
77 -72 140 -75 140 -3 0 -155 -299 -338 -665z"/>
<path d="M1997 1435 l-327 -655 845 0 845 0 70 140 c38 77 70 142 70 145 0 3
-301 5 -669 5 -368 0 -676 3 -685 6 -9 3 -16 15 -16 25 0 11 77 172 170 359
l170 340 -73 145 -72 145 -328 -655z"/>
<path d="M2432 1605 l-62 -125 130 0 130 0 -62 125 c-35 69 -65 125 -68 125
-3 0 -33 -56 -68 -125z"/>
</g>
</svg>
