<svg width="216" height="356" fill="none" xmlns="http://www.w3.org/2000/svg"><path d="M20.5 3h175L213 38l-70 140 17.5 35L213 318l-17.5 35h-175L3 318l70-140L3 38 20.5 3z" fill="#000"/><path d="M195.5 3h-175L3 38M195.5 3L213 38l-70 140M195.5 3l-70 140M3 38h140l-35 70-17.5-35M3 38l87.5 175-70 140M3 38l122.5 245h-35 70L55.5 73m35 0l70 140m-70-140L213 318M125.5 73h-70m0 0l70 140M213 318l-17.5 35h-175M213 318H73l35-70M20.5 353L3 318l70-140" stroke="#fff" stroke-width="5" stroke-linecap="round" stroke-linejoin="round"/></svg>